<?xml version="1.0" encoding="UTF-8"?>
<svg id="Layer_2" xmlns="http://www.w3.org/2000/svg" version="1.1" viewBox="0 0 3964.2 561.69">
  <!-- Generator: Adobe Illustrator 30.0.0, SVG Export Plug-In . SVG Version: 2.1.1 Build 123)  -->
  <defs>
    <style>
      .st0, .st1 {
        fill: #fff;
      }

      .st2 {
        stroke-width: .75px;
      }

      .st2, .st3 {
        fill: none;
      }

      .st2, .st3, .st1 {
        stroke: #fff;
        stroke-miterlimit: 10;
      }

      .st4 {
        isolation: isolate;
      }

      .st3 {
        stroke-width: 6px;
      }

      .st1 {
        stroke-width: 7.35px;
      }
    </style>
  </defs>
  <g id="Layer_1-2">
    <g>
      <g>
        <g>
          <path class="st0" d="M668.34,103.21c-.35,6.23-.69,12.3-1.04,18.17-.34,5.89-.61,12.2-.77,18.95-.18,6.75-.26,14.2-.26,22.32v73.48c0,23.19.26,43.01.77,59.45.53,16.44,1.04,30.11,1.56,41.02.53,10.9,1.04,19.47,1.56,25.7.53,6.23.79,10.74.79,13.5,0,9.7-7.45,14.54-22.33,14.54h-35.31c-8.3,0-14.19-1.21-17.66-3.64-3.45-2.42-5.19-6.05-5.19-10.9,0-2.77.26-7.27.79-13.5.52-6.23,1.03-14.8,1.56-25.7.52-10.91,1.03-24.58,1.56-41.02.52-16.44.77-36.26.77-59.45v-44.14c0-23.18-.26-43.18-.77-59.97-.53-16.79-1.04-30.8-1.56-42.06-.53-11.25-1.04-20.07-1.56-26.48-.53-6.4-.79-10.99-.79-13.76,0-4.84,1.81-8.13,5.46-9.87,3.63-1.73,9.43-2.59,17.39-2.59h15.06c5.19,0,12.2-.17,21.03-.52,8.82-.34,18.08-.59,27.78-.78,9.68-.17,19.2-.43,28.56-.78,9.34-.34,17.13-.52,23.36-.52,10.72,0,22.59,1.13,35.57,3.38,12.99,2.26,25.1,6.75,36.35,13.5,11.24,6.75,20.6,16.36,28.03,28.81,7.45,12.46,11.17,28.74,11.17,48.81,0,13.16-1.73,24.76-5.2,34.79-3.45,10.04-8.13,18.95-14.02,26.74-5.89,7.79-12.98,14.63-21.29,20.51-8.3,5.89-17.13,11.08-26.48,15.57-2.42,1.04-3.72,2.34-3.9,3.9s.08,2.85.79,3.9c8.64,10.38,18.08,21.11,28.29,32.19,10.21,11.08,20.77,22.32,31.68,33.75,10.9,11.42,21.98,22.68,33.24,33.75,11.24,11.08,22.24,21.81,32.98,32.2,2.07,2.07,3.37,3.81,3.89,5.19.52,1.39.79,2.95.79,4.68,0,4.85-4.08,8.74-12.2,11.68-8.14,2.94-19.65,5.45-34.53,7.53-5.89.69-10.39,1.2-13.5,1.56-3.11.34-6.23.52-9.34.52-4.85,0-8.4-.44-10.65-1.3-2.26-.86-3.9-1.82-4.93-2.86-8.31-9.34-18.17-20.68-29.61-34.01-11.42-13.32-23.18-27.26-35.31-41.8-12.12-14.54-23.97-29.16-35.57-43.88-11.61-14.71-22.07-28.3-31.42-40.76-1.73-2.77-2.59-6.05-2.59-9.87,0-6.23,2.93-10.91,8.82-14.02,2.08-1.04,4.94-2.34,8.57-3.9s6.66-2.68,9.09-3.37c17.66-6.57,30.63-14.8,38.94-24.67s12.47-23.63,12.47-41.28c0-13.5-4.59-24.66-13.76-33.49-9.18-8.82-23.63-13.24-43.36-13.24h-11.94c-4.15,0-7.61.34-10.38,1.04-2.78.7-5.28,2.08-7.53,4.16-2.26,2.08-3.56,5.02-3.9,8.82h-.03v.02Z"/>
          <path class="st0" d="M968.46,24.29c11.76,0,21.63,3.98,29.59,11.94,7.96,7.97,11.94,17.66,11.94,29.09,0,10.74-3.98,19.99-11.94,27.78s-17.83,11.68-29.59,11.68-21.82-3.81-30.12-11.42c-8.31-7.6-12.46-16.95-12.46-28.03s4.15-21.11,12.46-29.09c8.3-7.96,18.33-11.94,30.12-11.94h0ZM933.14,244.97c0-7.27-.18-15.4-.52-24.4-.35-8.99-.77-17.82-1.3-26.48-.52-8.65-.95-16.44-1.3-23.37-.34-6.92-.52-11.76-.52-14.54,0-4.84,1.81-8.13,5.46-9.87,3.63-1.73,9.43-2.6,17.39-2.6h31.68c8.3,0,14.1.88,17.39,2.6,3.29,1.73,4.94,5.03,4.94,9.87,0,2.78-.19,7.62-.53,14.54-.35,6.93-.77,14.71-1.3,23.37-.52,8.65-.95,17.49-1.3,26.48-.34,9.01-.52,17.14-.52,24.4v29.08c0,9.7.18,20.09.52,31.15.35,11.08.79,21.55,1.3,31.42.53,9.86.95,18.52,1.3,25.96.34,7.44.53,12.55.53,15.32,0,4.85-1.74,8.13-5.2,9.87-3.47,1.73-9.17,2.59-17.13,2.59h-31.68c-8.3,0-14.19-.86-17.65-2.59-3.47-1.73-5.2-5.02-5.2-9.87,0-2.77.18-7.88.52-15.32.35-7.44.79-16.1,1.3-25.96.53-9.87.95-20.34,1.3-31.42.34-11.07.52-21.46.52-31.15v-29.08h0Z"/>
          <path class="st0" d="M1051.54,164.49c-2.08-5.19-3.13-9-3.13-11.42,0-6.23,4.33-9.35,12.99-9.35h56.6c8.31,0,12.99,2.6,14.02,7.79,2.78,10.04,5.97,21.29,9.62,33.75,3.63,12.46,7.26,25.01,10.9,37.64,3.63,12.64,7.27,24.85,10.9,36.61,3.63,11.78,6.82,21.99,9.6,30.64.69,1.73,2.08,2.68,4.16,2.85,2.07.18,3.45-.59,4.16-2.34,3.81-9,8.13-19.73,12.98-32.19,4.85-12.46,9.6-25.26,14.29-38.42,4.67-13.16,9.16-25.87,13.49-38.16,4.33-12.28,7.87-22.59,10.65-30.9,1.73-4.84,5.37-7.27,10.92-7.27h55.55c7.61,0,11.42,1.91,11.42,5.71,0,2.42-.69,5.19-2.07,8.31-1.38,3.81-4.77,11.6-10.13,23.37-5.37,11.77-11.85,25.44-19.46,41.01-7.63,15.58-15.76,31.93-24.4,49.07-8.67,17.13-16.79,32.63-24.4,46.47-12.12,22.16-23.11,42.23-32.98,60.23-9.86,17.99-19.39,35.31-28.56,51.93s-18.35,33.14-27.52,49.59c-9.17,16.43-18.94,34.19-29.34,53.22-1.38,2.76-4.24,4.58-8.57,5.45-4.33.86-9.43,1.29-15.32,1.29-23.88,0-40.06-.95-48.54-2.85-8.49-1.91-12.73-5.28-12.73-10.13,0-2.42.7-4.67,2.08-6.75s2.59-3.99,3.63-5.71c19.73-28.04,37.56-53.66,53.48-76.85,15.91-23.19,29.95-44.31,42.07-63.35.68-1.38,1.2-3.54,1.56-6.48.34-2.94,0-5.63-1.04-8.05l-5.19-15.06c-1.04-2.42-2.95-7.09-5.71-14.02-2.78-6.92-6.07-15.32-9.87-25.18-3.81-9.87-7.96-20.77-12.46-32.71s-9.26-24.15-14.27-36.61c-5.03-12.46-10.05-24.83-15.06-37.13-5.03-12.28-9.79-23.63-14.27-34.01h-.05Z"/>
          <path class="st0" d="M1552.61,371.15c-10.05,7.96-22.59,14.2-37.65,18.69-15.05,4.5-32.45,6.75-52.18,6.75-17.65,0-34.19-2.42-49.58-7.27-15.41-4.85-28.82-12.28-40.25-22.33-11.42-10.04-20.5-22.75-27.26-38.16-6.75-15.4-10.12-33.83-10.12-55.3,0-19.39,2.59-37.38,7.79-54,5.19-16.62,12.89-30.98,23.11-43.1,10.21-12.11,22.93-21.63,38.16-28.55,15.24-6.92,33.06-10.39,53.48-10.39,36.69,0,63,9.27,78.93,27.78,15.91,18.52,23.89,46.99,23.89,85.42,0,4.85-.09,9.26-.27,13.24s-.61,7.19-1.29,9.61c-.35,1.39-1.22,2.68-2.6,3.9-1.4,1.22-4.16,2.17-8.31,2.86-7.61,1.04-16.44,1.9-26.48,2.59-10.05.7-20.69,1.3-31.94,1.81-11.26.52-22.85.88-34.79,1.04-11.94.18-23.62.26-35.05.26h-5.7c-4.51,0-6.76,2.08-6.76,6.23,0,9.35,1.99,17.31,5.97,23.89,3.98,6.57,9.09,11.94,15.32,16.1,6.23,4.15,13.41,7.18,21.55,9.09,8.13,1.9,16.36,2.85,24.66,2.85,25.96,0,47.6-5.19,64.91-15.57,2.41-2.08,5.01-3.11,7.79-3.11,3.11,0,5.27,2.95,6.48,8.82,1.22,5.89,1.81,13.5,1.81,22.85,0,7.97-1.2,12.64-3.63,14.02h-.01l.02-.02ZM1417.08,240.82c12.46,0,24.93-.08,37.39-.26s24.4-.79,35.82-1.82c2.42-.34,4.5-1.38,6.23-3.11s2.6-3.45,2.6-5.19v-3.11c0-14.54-4.08-24.92-12.2-31.15-8.14-6.23-17.58-9.34-28.3-9.34-14.53,0-26.48,4.33-35.82,12.98s-14.02,19.91-14.02,33.75c0,4.85,2.07,7.27,6.23,7.27h2.07v-.02Z"/>
          <path class="st0" d="M1776.91,381.53c-7.96,4.85-17.9,8.57-29.85,11.17-11.94,2.59-23.46,3.9-34.53,3.9-36.01,0-62.31-10.81-78.93-32.45-16.62-21.64-24.92-51.49-24.92-89.58,0-19.73,2.51-37.99,7.53-54.78,5.01-16.79,12.54-31.24,22.59-43.36,10.04-12.11,22.66-21.63,37.91-28.55,15.22-6.92,33.04-10.39,53.48-10.39,8.99,0,17.04.88,24.13,2.6,7.09,1.73,12.55,3.46,16.36,5.19,2.08,1.04,3.64,1.29,4.67.78,1.04-.52,1.56-1.3,1.56-2.34v-2.07c0-20.77-.26-37.82-.77-51.14-.53-13.32-1.04-24.06-1.56-32.2-.53-8.13-1.04-14.36-1.56-18.69-.53-4.33-.79-7.87-.79-10.65,0-4.84,1.64-8.13,4.93-9.87,3.29-1.73,9.09-2.59,17.4-2.59h31.15c7.96,0,13.76.86,17.4,2.59,3.63,1.73,5.44,5.03,5.44,9.87,0,2.78-.23,7.36-.69,13.76-.46,6.41-.93,15.32-1.38,26.74-.46,11.42-.92,25.53-1.4,42.32-.46,16.79-.68,36.78-.68,59.97v87.24c0,15.24.39,29.95,1.2,44.14s1.61,27,2.42,38.42c.8,11.42,1.61,20.86,2.41,28.3.81,7.45,1.22,11.87,1.22,13.24,0,1.74-.77,3.38-2.33,4.94s-3.9,2.34-7.02,2.34h-43.09c-3.82,0-7.09-.52-9.87-1.56-2.76-1.04-4.5-3.11-5.19-6.23-1.04-3.46-3.47-3.81-7.27-1.04h0l.03-.02ZM1776.91,216.94c0-6.93-1.73-11.6-5.19-14.02-4.51-3.11-9.09-5.28-13.76-6.48-4.67-1.21-10.48-1.82-17.4-1.82-10.38,0-19.2,1.91-26.48,5.71-7.27,3.81-13.25,9.01-17.92,15.57-4.67,6.58-8.14,14.28-10.38,23.11-2.26,8.83-3.39,18.44-3.39,28.82,0,9.7.79,18.87,2.34,27.52,1.56,8.66,4.32,16.28,8.3,22.85,3.98,6.58,9.52,11.78,16.62,15.58,7.09,3.81,16.36,5.71,27.78,5.71,15.93,0,27.87-4.32,35.84-12.98,1.04-1.38,1.9-2.86,2.6-4.42.69-1.56,1.03-4.41,1.03-8.57v-96.58h.01Z"/>
          <path class="st0" d="M2099.88,303.65c0,23.89.86,42.15,2.6,54.78,1.72,12.64,2.6,20.69,2.6,24.15,0,1.73-.79,3.46-2.34,5.19-1.56,1.73-3.9,2.59-7.02,2.59h-46.21c-4.5,0-7.35-.52-8.57-1.56-1.2-1.04-2.33-2.94-3.37-5.71-1.03-3.11-3.11-3.8-6.23-2.07-8.3,4.51-17.92,8.23-28.82,11.16-10.9,2.94-21.37,4.42-31.41,4.42-23.2,0-41.28-6.48-54.26-19.47-12.98-12.98-19.48-32.46-19.48-58.42,0-14.54,2.68-26.74,8.06-36.61,5.37-9.87,12.71-17.82,22.06-23.88,9.34-6.05,20.42-10.39,33.24-12.98,12.8-2.6,26.65-3.9,41.53-3.9h19.73c6.57,0,9.87-2.6,9.87-7.79,0-7.61-.45-14.1-1.3-19.47-.86-5.37-2.86-9.78-5.97-13.25-3.11-3.45-7.53-6.05-13.25-7.79-5.71-1.73-13.25-2.59-22.59-2.59s-17.39.7-25.18,2.08-16.54,3.98-26.22,7.79c-4.86,1.73-8.31.18-10.39-4.67-.35-1.04-.86-2.86-1.56-5.46-.7-2.59-1.3-5.45-1.81-8.57-.53-3.11-.96-6.4-1.3-9.87-.35-3.45-.53-6.57-.53-9.34,0-4.84,2.78-8.48,8.31-10.9,12.11-4.85,24.49-8.39,37.12-10.65,12.64-2.25,24.84-3.38,36.61-3.38,18,0,33.24,2.08,45.7,6.23,12.46,4.16,22.5,9.96,30.12,17.4,7.61,7.45,13.05,16.28,16.36,26.48,3.28,10.21,4.93,21.21,4.93,32.97,0,9.01-.18,18.17-.53,27.52-.34,9.35-.52,17.14-.52,23.37v32.21h.02ZM2031.87,291.71c0-2.77-.79-4.58-2.34-5.46-1.56-.86-3.37-1.29-5.46-1.29h-11.42c-17.66,0-30.38,2.26-38.16,6.75-7.79,4.51-11.69,12.98-11.69,25.44,0,11.42,3.2,19.21,9.62,23.37,6.39,4.15,14.27,6.23,23.62,6.23,13.84,0,24.92-4.16,33.24-12.46,1.72-1.73,2.6-4.49,2.6-8.3v-34.27h-.01Z"/>
        </g>
        <g>
          <g class="st4">
            <g class="st4">
              <path class="st0" d="M622.27,512.33h19.25c0,2.07-.14,3.83-.41,5.28-.76,4.49-3.76,6.73-9,6.73h-25.15c-2.48,0-4.45-.74-5.9-2.23-1.45-1.48-2.17-3.5-2.17-6.05v-62.5l.72-.72h5.17c2.76,0,4.79.71,6.11,2.12,1.31,1.42,1.97,3.67,1.97,6.78v51.02c2.97-.27,6.11-.41,9.42-.41v-.02Z"/>
            </g>
            <g class="st4">
              <path class="st0" d="M691.92,502.81h-28.56c.21,3.79,1.09,6.78,2.64,8.95,1.55,2.17,4.26,3.26,8.12,3.26s8.59-1.17,13.76-3.52c2,2.07,3.28,4.8,3.83,8.18-5.52,3.93-12.14,5.9-19.87,5.9-7.31,0-12.85-2.26-16.61-6.78s-5.64-11.23-5.64-20.13c0-4.14.48-7.88,1.45-11.23.96-3.35,2.38-6.21,4.24-8.59s4.14-4.22,6.83-5.54c2.69-1.31,5.76-1.97,9.21-1.97s6.62.54,9.31,1.6c2.69,1.07,4.97,2.59,6.83,4.55,1.86,1.97,3.26,4.29,4.19,6.99.93,2.69,1.4,5.62,1.4,8.8,0,1.73-.1,3.36-.31,4.92-.21,1.55-.48,3.09-.83,4.6h0ZM671.95,481.08c-5.38,0-8.28,4.07-8.69,12.21h17.18v-1.24c0-3.31-.69-5.97-2.07-7.97s-3.52-3-6.42-3Z"/>
              <path class="st0" d="M728.34,517.92c.21-1.93.84-3.88,1.91-5.85,1.07-1.97,2.29-3.53,3.67-4.71,7.1,4.55,14.07,6.83,20.9,6.83,3.31,0,5.93-.78,7.86-2.33,1.93-1.55,2.9-3.5,2.9-5.85-.14-4-2.79-7.14-7.97-9.42l-12.21-5.17c-4.83-2-8.45-4.57-10.87-7.71-2.42-3.14-3.62-6.74-3.62-10.81,0-3.1.6-5.93,1.81-8.49,1.21-2.55,2.93-4.74,5.17-6.57,2.24-1.83,4.9-3.26,7.97-4.29,3.07-1.03,6.47-1.55,10.19-1.55,7.59,0,15.04,1.9,22.35,5.69-.21,4.21-1.83,7.73-4.86,10.56-6.97-3.24-13.04-4.86-18.21-4.86-3.31,0-5.85.75-7.61,2.26s-2.64,3.36-2.64,5.55c0,3.15,2.45,5.76,7.35,7.81l12.21,5.17c4.97,2.07,8.8,4.8,11.49,8.18s4.04,7.28,4.04,11.69c0,3.1-.55,5.99-1.66,8.64-1.1,2.66-2.78,4.93-5.02,6.83s-5.04,3.38-8.38,4.45c-3.35,1.07-7.3,1.6-11.85,1.6-8.83,0-17.14-2.55-24.94-7.66h.02Z"/>
              <path class="st0" d="M835.55,517.92c-.35,1.24-.97,2.55-1.86,3.93-.9,1.38-1.79,2.41-2.69,3.1-4.49-.55-7.76-2.52-9.83-5.9-4.48,4.35-9.38,6.52-14.69,6.52-2.69,0-5.05-.43-7.09-1.29-2.04-.86-3.73-2.02-5.07-3.47s-2.35-3.1-3-4.97c-.66-1.86-.98-3.79-.98-5.79,0-2.9.5-5.43,1.5-7.61,1-2.17,2.41-3.98,4.24-5.43,1.83-1.45,3.97-2.55,6.42-3.31s5.12-1.14,8.02-1.14c3.73,0,6.62.1,8.69.31v-2.79c0-5.24-2.55-7.86-7.66-7.86-3.45,0-8.69,1.21-15.73,3.62-1.93-2.14-3.1-5.35-3.52-9.62,7.31-3.1,14.87-4.66,22.66-4.66,5.17,0,9.42,1.45,12.73,4.35s4.97,7.28,4.97,13.14v21.21c0,3.66.97,6.21,2.9,7.66h0ZM809.47,515.33c3.45,0,6.69-1.52,9.73-4.55v-9c-1.1-.07-2.17-.14-3.21-.21-1.03-.07-2.04-.1-3-.1-3.04,0-5.35.57-6.93,1.71-1.59,1.14-2.38,3.02-2.38,5.64,0,2.07.52,3.67,1.55,4.81s2.45,1.71,4.24,1.71h0Z"/>
            </g>
            <g class="st4">
              <path class="st0" d="M867.31,514.19h3.21c.76,1.93,1.14,3.79,1.14,5.59s-.1,3.1-.31,3.93c-4.21.62-7.55.93-10.04.93-4,0-6.93-1.02-8.8-3.05-1.86-2.03-2.79-5.23-2.79-9.57v-63.33l.72-.72h5.17c2.69,0,4.59.64,5.69,1.91,1.1,1.28,1.66,3.43,1.66,6.47v53.09c0,3.17,1.45,4.76,4.35,4.76h0Z"/>
            </g>
            <g class="st4">
              <path class="st0" d="M919.05,477.15c4.9,4.9,7.35,12,7.35,21.32,0,4.14-.52,7.88-1.55,11.23-1.03,3.35-2.54,6.19-4.5,8.54-1.97,2.35-4.4,4.16-7.3,5.43-2.9,1.28-6.17,1.91-9.83,1.91s-6.92-.64-9.78-1.91c-2.86-1.28-5.28-3.09-7.24-5.43-1.97-2.34-3.47-5.19-4.5-8.54s-1.55-7.09-1.55-11.23c0-8.35,2-14.95,6-19.82,4-4.86,9.69-7.3,17.07-7.3,6.48,0,11.76,1.93,15.83,5.8h0ZM903.22,481.49c-6.07,0-9.11,5.66-9.11,16.97s3.04,16.87,9.11,16.87,9.21-5.62,9.21-16.87-3.07-16.97-9.21-16.97h0Z"/>
              <path class="st0" d="M983.01,489.56v22.56c0,4.42.72,7.69,2.17,9.83-2.21,1.93-4.86,2.9-7.97,2.9s-5-.67-6.11-2.02c-1.1-1.35-1.66-3.47-1.66-6.36v-24.11c0-3.1-.38-5.28-1.14-6.52s-2.17-1.86-4.24-1.86c-3.66,0-7.07,1.66-10.24,4.97v35.18c-1.04.21-2.12.34-3.26.41-1.14.07-2.29.1-3.47.1s-2.33-.04-3.47-.1c-1.14-.07-2.22-.21-3.26-.41v-51.22l.62-.72h5.17c3.86,0,6.28,2.07,7.24,6.21,5.04-4.35,10.04-6.52,15-6.52s8.64,1.6,11.02,4.81,3.57,7.5,3.57,12.88h.03Z"/>
            </g>
          </g>
          <g class="st4">
            <g class="st4">
              <path class="st0" d="M1222.04,475.72c3.31,0,6.83.93,10.56,2.79v-25.87l.72-.72h5.17c2.69,0,4.59.62,5.69,1.86s1.66,3.42,1.66,6.52v52.98c0,4.21.97,7.07,2.9,8.59-.28,1.24-.85,2.55-1.71,3.93s-1.78,2.41-2.74,3.1c-4.49-.41-7.73-2.45-9.73-6.11-4.07,4.49-9,6.73-14.8,6.73-2.97,0-5.57-.64-7.81-1.91-2.24-1.28-4.12-3.07-5.64-5.38s-2.66-5.12-3.41-8.43c-.76-3.31-1.14-7.04-1.14-11.18s.53-7.97,1.6-11.28,2.52-6.12,4.35-8.43,3.97-4.09,6.42-5.33c2.45-1.24,5.09-1.86,7.92-1.86h-.01ZM1223.28,518.46c3.59,0,6.69-1.72,9.31-5.17v-24.22c-1.52-.97-2.97-1.71-4.35-2.22-1.38-.52-2.66-.78-3.83-.78-2.69,0-4.85,1.42-6.47,4.24-1.62,2.83-2.43,7-2.43,12.52s.72,9.33,2.17,11.85c1.45,2.52,3.31,3.78,5.59,3.78h0Z"/>
              <path class="st0" d="M1299.24,506.76h-28.56c.21,3.79,1.09,6.78,2.64,8.95s4.26,3.26,8.12,3.26,8.59-1.17,13.76-3.52c2,2.07,3.28,4.8,3.83,8.18-5.52,3.93-12.14,5.9-19.87,5.9-7.31,0-12.85-2.26-16.61-6.78s-5.64-11.23-5.64-20.13c0-4.14.48-7.88,1.45-11.23.96-3.35,2.38-6.21,4.24-8.59s4.14-4.22,6.83-5.54c2.69-1.31,5.76-1.97,9.21-1.97s6.62.54,9.31,1.6c2.69,1.07,4.97,2.59,6.83,4.55,1.86,1.97,3.26,4.29,4.19,6.99.93,2.69,1.4,5.62,1.4,8.8,0,1.73-.1,3.36-.31,4.92-.21,1.55-.48,3.09-.83,4.6h.01ZM1279.27,485.03c-5.38,0-8.28,4.07-8.69,12.21h17.18v-1.24c0-3.31-.69-5.97-2.07-7.97s-3.52-3-6.42-3h0Z"/>
            </g>
            <g class="st4">
              <path class="st0" d="M1355.01,518.15h3.21c.76,1.93,1.14,3.79,1.14,5.59s-.1,3.1-.31,3.93c-4.21.62-7.55.93-10.04.93-4,0-6.93-1.02-8.8-3.05-1.86-2.03-2.79-5.23-2.79-9.57v-63.33l.72-.72h5.17c2.69,0,4.59.64,5.69,1.91,1.1,1.28,1.66,3.43,1.66,6.47v53.09c0,3.17,1.45,4.76,4.35,4.76h0Z"/>
            </g>
            <g class="st4">
              <path class="st0" d="M1382.95,449.02c.83,2.21,1.24,4.73,1.24,7.55,0,4.76-1.35,8.95-4.04,12.57-2.69,3.62-6.62,6.23-11.8,7.81-.97-.55-1.76-1.35-2.38-2.38s-.9-2.38-.83-4.04c2.07-.76,3.93-1.91,5.59-3.47s2.52-3.33,2.59-5.33c-1.45-.21-2.57-.47-3.36-.78s-1.33-.78-1.6-1.4c-.28-.62-.47-1.33-.57-2.12s-.16-1.74-.16-2.85c0-2.55.38-4.41,1.14-5.59,2-1.1,4.45-1.66,7.35-1.66s5.1.55,6.83,1.66v.03Z"/>
              <path class="st0" d="M1411.72,510.39l-.1,6.42,7.24-.21h25.35c0,2.21-.1,3.9-.31,5.07-.76,4.42-3.73,6.62-8.9,6.62h-29.08c-2.48,0-4.43-.74-5.85-2.23-1.41-1.48-2.12-3.5-2.12-6.05v-61.88l.72-.72h43.15c.34,1.73.52,3.57.52,5.54s-.38,4.02-1.14,6.16h-29.6l.1,7.14v10.66l6.73-.1h17.49c.55,1.59.83,3.48.83,5.69s-.28,4.11-.83,5.69h-24.21v12.21h.01Z"/>
              <path class="st0" d="M1499.26,493.52v22.56c0,4.42.72,7.69,2.17,9.83-2.21,1.93-4.86,2.9-7.97,2.9s-5-.67-6.11-2.02c-1.1-1.35-1.66-3.47-1.66-6.36v-24.11c0-3.1-.38-5.28-1.14-6.52s-2.17-1.86-4.24-1.86c-3.66,0-7.07,1.66-10.24,4.97v35.18c-1.04.21-2.12.34-3.26.41-1.14.07-2.29.1-3.47.1s-2.33-.04-3.47-.1c-1.14-.07-2.22-.21-3.26-.41v-51.22l.62-.72h5.17c3.86,0,6.28,2.07,7.24,6.21,5.04-4.35,10.04-6.52,15-6.52s8.64,1.6,11.02,4.81,3.57,7.5,3.57,12.88h.03Z"/>
              <path class="st0" d="M1541.9,476.65c.41,1.66.62,3.28.62,4.86s-.21,3.21-.62,4.86l-12.52-.21v27.22c0,3.17,1.48,4.76,4.45,4.76h6.42c.69,2.07,1.04,4.04,1.04,5.9s-.1,3.07-.31,3.62c-4.21.62-8.35.93-12.42.93-8.28,0-12.42-4.21-12.42-12.62v-29.7l-7.86.1c-.35-1.38-.52-3-.52-4.86s.17-3.48.52-4.86l7.86.1v-7.45c0-3.03.55-5.17,1.66-6.42,1.1-1.24,3-1.86,5.69-1.86h5.17l.72.62v15.21l12.52-.21h0Z"/>
            </g>
            <g class="st4">
              <path class="st0" d="M1549.76,482.96c.27-1.24.84-2.55,1.71-3.93.86-1.38,1.74-2.41,2.64-3.1,5.59.69,9.42,3.79,11.49,9.31,2.62-6.14,7-9.21,13.14-9.21,2.28,0,4.35.24,6.21.72,0,4.83-1.1,9.04-3.31,12.62-1.04-.34-2.62-.59-4.76-.72-4,0-7.24,2.14-9.73,6.42v33.01c-2.07.34-4.29.52-6.67.52s-4.67-.17-6.88-.52v-34.46c0-4.9-1.28-8.45-3.83-10.66h0Z"/>
            </g>
            <g class="st4">
              <path class="st0" d="M1630.68,506.76h-28.56c.21,3.79,1.09,6.78,2.64,8.95s4.26,3.26,8.12,3.26,8.59-1.17,13.76-3.52c2,2.07,3.28,4.8,3.83,8.18-5.52,3.93-12.14,5.9-19.87,5.9-7.31,0-12.85-2.26-16.61-6.78s-5.64-11.23-5.64-20.13c0-4.14.48-7.88,1.45-11.23.96-3.35,2.38-6.21,4.24-8.59s4.14-4.22,6.83-5.54c2.69-1.31,5.76-1.97,9.21-1.97s6.62.54,9.31,1.6c2.69,1.07,4.97,2.59,6.83,4.55,1.86,1.97,3.26,4.29,4.19,6.99.93,2.69,1.4,5.62,1.4,8.8,0,1.73-.1,3.36-.31,4.92-.21,1.55-.48,3.09-.83,4.6h.01ZM1610.71,485.03c-5.38,0-8.28,4.07-8.69,12.21h17.18v-1.24c0-3.31-.69-5.97-2.07-7.97s-3.52-3-6.42-3h0Z"/>
              <path class="st0" d="M1668.14,529.01c-3.59,0-7.14-.93-10.66-2.79v15.83c0,3.1-.55,5.28-1.66,6.52-1.1,1.24-3,1.86-5.69,1.86h-5.28l-.62-.72v-72.85l.62-.72h3.83c3.66,0,6.21,1.69,7.66,5.07,3.93-3.93,8.69-5.9,14.28-5.9s10.04,2.4,13.14,7.19c3.1,4.8,4.66,11.37,4.66,19.71,0,4.14-.54,7.86-1.6,11.18-1.07,3.31-2.52,6.12-4.35,8.43s-3.97,4.09-6.42,5.33c-2.45,1.24-5.09,1.86-7.92,1.86h.01ZM1666.9,486.27c-3.73,0-6.87,1.79-9.42,5.38v24.01c3.03,2,5.79,3,8.28,3,2.9,0,5.1-1.46,6.62-4.4,1.52-2.93,2.28-7.05,2.28-12.37s-.72-9.33-2.17-11.85c-1.45-2.52-3.31-3.78-5.59-3.78h0Z"/>
            </g>
            <g class="st4">
              <path class="st0" d="M1697.53,482.96c.27-1.24.84-2.55,1.71-3.93.86-1.38,1.74-2.41,2.64-3.1,5.59.69,9.42,3.79,11.49,9.31,2.62-6.14,7-9.21,13.14-9.21,2.28,0,4.35.24,6.21.72,0,4.83-1.1,9.04-3.31,12.62-1.04-.34-2.62-.59-4.76-.72-4,0-7.24,2.14-9.73,6.42v33.01c-2.07.34-4.29.52-6.67.52s-4.67-.17-6.88-.52v-34.46c0-4.9-1.28-8.45-3.83-10.66h0Z"/>
            </g>
            <g class="st4">
              <path class="st0" d="M1778.45,506.76h-28.56c.21,3.79,1.09,6.78,2.64,8.95s4.26,3.26,8.12,3.26,8.59-1.17,13.76-3.52c2,2.07,3.28,4.8,3.83,8.18-5.52,3.93-12.14,5.9-19.87,5.9-7.31,0-12.85-2.26-16.61-6.78s-5.64-11.23-5.64-20.13c0-4.14.48-7.88,1.45-11.23.96-3.35,2.38-6.21,4.24-8.59s4.14-4.22,6.83-5.54c2.69-1.31,5.76-1.97,9.21-1.97s6.62.54,9.31,1.6c2.69,1.07,4.97,2.59,6.83,4.55,1.86,1.97,3.26,4.29,4.19,6.99.93,2.69,1.4,5.62,1.4,8.8,0,1.73-.1,3.36-.31,4.92-.21,1.55-.48,3.09-.83,4.6h.01ZM1758.48,485.03c-5.38,0-8.28,4.07-8.69,12.21h17.18v-1.24c0-3.31-.69-5.97-2.07-7.97s-3.52-3-6.42-3h0Z"/>
              <path class="st0" d="M1834.64,493.52v22.56c0,4.42.72,7.69,2.17,9.83-2.21,1.93-4.86,2.9-7.97,2.9s-5-.67-6.11-2.02c-1.1-1.35-1.66-3.47-1.66-6.36v-24.11c0-3.1-.38-5.28-1.14-6.52s-2.17-1.86-4.24-1.86c-3.66,0-7.07,1.66-10.24,4.97v35.18c-1.04.21-2.12.34-3.26.41-1.14.07-2.29.1-3.47.1s-2.33-.04-3.47-.1c-1.14-.07-2.22-.21-3.26-.41v-51.22l.62-.72h5.17c3.86,0,6.28,2.07,7.24,6.21,5.04-4.35,10.04-6.52,15-6.52s8.64,1.6,11.02,4.81,3.57,7.5,3.57,12.88h.03Z"/>
              <path class="st0" d="M1888.55,506.76h-28.56c.21,3.79,1.09,6.78,2.64,8.95s4.26,3.26,8.12,3.26,8.59-1.17,13.76-3.52c2,2.07,3.28,4.8,3.83,8.18-5.52,3.93-12.14,5.9-19.87,5.9-7.31,0-12.85-2.26-16.61-6.78s-5.64-11.23-5.64-20.13c0-4.14.48-7.88,1.45-11.23.96-3.35,2.38-6.21,4.24-8.59s4.14-4.22,6.83-5.54c2.69-1.31,5.76-1.97,9.21-1.97s6.62.54,9.31,1.6c2.69,1.07,4.97,2.59,6.83,4.55,1.86,1.97,3.26,4.29,4.19,6.99.93,2.69,1.4,5.62,1.4,8.8,0,1.73-.1,3.36-.31,4.92-.21,1.55-.48,3.09-.83,4.6h.01ZM1868.58,485.03c-5.38,0-8.28,4.07-8.69,12.21h17.18v-1.24c0-3.31-.69-5.97-2.07-7.97s-3.52-3-6.42-3h0Z"/>
              <path class="st0" d="M1901.69,511.32v-22.66c0-4.28-.72-7.55-2.17-9.83,2.28-1.93,4.92-2.9,7.92-2.9s5.05.71,6.16,2.12c1.1,1.41,1.66,3.54,1.66,6.36v24.11c0,2.97.38,5.09,1.14,6.36.76,1.28,2.17,1.91,4.24,1.91,3.66,0,7.07-1.59,10.25-4.76v-35.29c1.52-.34,3.74-.52,6.67-.52s5.23.17,6.88.52v36.74c0,4.07.97,6.93,2.9,8.59-.35,1.24-.95,2.52-1.81,3.83-.86,1.31-1.78,2.31-2.74,3-5.04-.48-8.52-2.93-10.45-7.35-5.31,4.97-10.8,7.45-16.45,7.45-4.62,0-8.14-1.62-10.56-4.86s-3.62-7.52-3.62-12.83h-.02Z"/>
            </g>
            <g class="st4">
              <path class="st0" d="M1956.84,482.96c.27-1.24.84-2.55,1.71-3.93.86-1.38,1.74-2.41,2.64-3.1,5.59.69,9.42,3.79,11.49,9.31,2.62-6.14,7-9.21,13.14-9.21,2.28,0,4.35.24,6.21.72,0,4.83-1.1,9.04-3.31,12.62-1.04-.34-2.62-.59-4.76-.72-4,0-7.24,2.14-9.73,6.42v33.01c-2.07.34-4.29.52-6.67.52s-4.67-.17-6.88-.52v-34.46c0-4.9-1.28-8.45-3.83-10.66h0Z"/>
            </g>
            <g class="st4">
              <path class="st0" d="M2017.9,487.21v40.88c-1.03.21-2.12.34-3.26.41-1.14.07-2.29.1-3.47.1s-2.33-.04-3.47-.1c-1.14-.07-2.26-.21-3.36-.41v-36.01c0-3.79-1.55-5.69-4.66-5.69h-1.35c-.41-1.52-.62-3.1-.62-4.76,0-1.52.21-3.1.62-4.76,1.59-.14,3.05-.26,4.4-.36s2.5-.16,3.47-.16h1.76c3.1,0,5.54.97,7.3,2.9s2.64,4.59,2.64,7.97h0ZM2002.27,456.78c1.59-.9,3.86-1.35,6.83-1.35,1.72,0,3.12.14,4.19.41,1.07.28,1.85.6,2.33.98s.79,1.09.93,2.12.21,2.11.21,3.21c-.21,3.52-.64,5.45-1.29,5.79-.66.35-2.81.69-6.47,1.03-3.86-.14-6.12-.65-6.78-1.55s-.98-2.65-.98-5.28c0-2,.34-3.79,1.03-5.38v.02Z"/>
            </g>
            <g class="st4">
              <path class="st0" d="M2074.81,521.87c-.35,1.24-.97,2.55-1.86,3.93-.9,1.38-1.79,2.41-2.69,3.1-4.49-.55-7.76-2.52-9.83-5.9-4.48,4.35-9.38,6.52-14.69,6.52-2.69,0-5.05-.43-7.09-1.29-2.04-.86-3.73-2.02-5.07-3.47s-2.35-3.1-3-4.97c-.66-1.86-.98-3.79-.98-5.79,0-2.9.5-5.43,1.5-7.61,1-2.17,2.41-3.98,4.24-5.43,1.83-1.45,3.97-2.55,6.42-3.31,2.45-.76,5.12-1.14,8.02-1.14,3.73,0,6.62.1,8.69.31v-2.79c0-5.24-2.55-7.86-7.66-7.86-3.45,0-8.69,1.21-15.73,3.62-1.93-2.14-3.1-5.35-3.52-9.62,7.31-3.1,14.87-4.66,22.66-4.66,5.17,0,9.42,1.45,12.73,4.35s4.97,7.28,4.97,13.14v21.21c0,3.66.97,6.21,2.9,7.66h0ZM2048.74,519.29c3.45,0,6.69-1.52,9.73-4.55v-9c-1.1-.07-2.17-.14-3.21-.21-1.03-.07-2.04-.1-3-.1-3.04,0-5.35.57-6.93,1.71-1.59,1.14-2.38,3.02-2.38,5.64,0,2.07.52,3.67,1.55,4.81s2.45,1.71,4.24,1.71h0Z"/>
            </g>
            <g class="st4">
              <path class="st0" d="M2113.62,476.65c.41,1.66.62,3.28.62,4.86s-.21,3.21-.62,4.86l-12.52-.21v27.22c0,3.17,1.48,4.76,4.45,4.76h6.42c.69,2.07,1.04,4.04,1.04,5.9s-.1,3.07-.31,3.62c-4.21.62-8.35.93-12.42.93-8.28,0-12.42-4.21-12.42-12.62v-29.7l-7.86.1c-.35-1.38-.52-3-.52-4.86s.17-3.48.52-4.86l7.86.1v-7.45c0-3.03.55-5.17,1.66-6.42,1.1-1.24,3-1.86,5.69-1.86h5.17l.72.62v15.21l12.52-.21h0Z"/>
            </g>
          </g>
        </g>
      </g>
      <g>
        <path class="st0" d="M2378.61,65.8v324.54h-105.95V97.59h-55.2V0h94.8C2349.07,0,2378.62,29.55,2378.62,65.8h-.01Z"/>
        <path class="st0" d="M2713.19,273.24c0,81.97-75.28,123.8-150.56,123.8s-148.89-41.26-148.89-124.91h108.18c2.23,18.96,20.63,27.33,39.59,27.33,22.3,0,45.73-11.71,45.73-34.57,0-21.19-13.38-46.29-52.42-46.29h-54.65v-59.11l41.26-61.9h-107.62V0h255.4v51.86l-73.05,105.39c60.78,11.71,97.03,51.3,97.03,115.99h-.01.01Z"/>
      </g>
      <g>
        <path class="st0" d="M10.91,447.17l.1-.09c-.06,0-.1.03-.1.09Z"/>
        <path class="st0" d="M11.39,111.28l-.1-.08c0,.06.04.08.1.08Z"/>
        <path class="st0" d="M10.56,451.29l.1-.09c-.06,0-.1.03-.1.09Z"/>
        <path class="st0" d="M11.04,109.98l-.1-.09c0,.06.04.08.1.09Z"/>
        <path class="st1" d="M534.41,277.71L245.25,38.18s-63.46-56.36-138.69-6.5c0,0,.04.02.09.05-.07.04-.14.08-.2.13,0,0-92.04,78.33-95.41,78.12l1.16.96c-.4.23-.68.35-.81.34l198.99,164.84L11.01,447.09c.28-.02,1.19.54,2.61,1.57l-2.96,2.54c3.32-.22,94.21,79.86,94.21,79.86.07.05.13.09.2.13-.05.03-.09.05-.09.05,74.29,50.97,136.95-6.65,136.95-6.65l195.91-168.01c1.62-.91,3.24-1.84,4.87-2.84l91.59-75.87-.05-.05.16-.14h0v.03ZM434.09,356.75c-.57.4-1.14.78-1.7,1.16l-187.22,162.41s-60.27,56.06-131.72,6.47c0,0-87.42-77.91-90.62-77.7l-.1.08c0-.06.04-.08.1-.08l193.61-167.95L24.1,114.29c-.06,0-.1-.03-.1-.08l.1.08c3.2.21,90.62-77.7,90.62-77.7,71.45-49.59,131.72,6.47,131.72,6.47l274.63,238.24-86.99,75.46h0Z"/>
        <path class="st0" d="M24,114.21l279.6,242.55s69.5,43.1,130.48,0l86.99-75.46L246.44,43.06s-60.27-56.06-131.72-6.47c0,0-90.72,80.85-90.72,77.62h0Z"/>
      </g>
    </g>
  </g>
  <g>
    <path class="st0" d="M2974.95,188.3c18.77-15.64,33.72-28.69,44.86-39.15,11.14-10.46,20.43-21.36,27.86-32.7,7.43-11.34,11.14-22.48,11.14-33.43,0-9.97-2.35-17.79-7.04-23.46s-11.93-8.5-21.7-8.5-17.3,3.28-22.58,9.82c-5.28,6.55-8.02,15.5-8.21,26.83h-39.88c.78-23.46,7.77-41.25,20.97-53.37s29.96-18.18,50.29-18.18c22.29,0,39.39,5.92,51.32,17.74,11.92,11.83,17.89,27.42,17.89,46.77,0,15.25-4.11,29.81-12.32,43.69s-17.59,25.95-28.15,36.21-24.34,22.63-41.35,37.09h86.5v34.02h-144.86v-30.5l15.25-12.9v.02Z"/>
    <path class="st0" d="M3832.18,194.31c5.57,4.6,13.05,6.89,22.43,6.89,12.12,0,20.92-5.03,26.39-15.1,5.47-10.07,8.21-27.02,8.21-50.88-4.5,6.26-10.8,11.14-18.91,14.66-8.11,3.52-16.86,5.28-26.24,5.28-12.51,0-23.8-2.59-33.87-7.77-10.07-5.18-18.03-12.9-23.9-23.17-5.86-10.26-8.8-22.73-8.8-37.39,0-21.7,6.45-38.95,19.35-51.76,12.9-12.8,30.5-19.21,52.78-19.21,27.76,0,47.36,8.9,58.79,26.68,11.44,17.79,17.15,44.57,17.15,80.35,0,25.42-2.2,46.23-6.6,62.46-4.4,16.23-11.93,28.54-22.58,36.95-10.66,8.41-25.17,12.61-43.55,12.61-14.47,0-26.79-2.79-36.95-8.36-10.17-5.57-17.94-12.9-23.31-21.99-5.38-9.09-8.46-19.11-9.24-30.06h38.12c1.56,8.6,5.13,15.2,10.7,19.79l.03.02ZM3876.61,112.35c5.87-6.25,8.8-14.66,8.8-25.22,0-11.53-3.08-20.48-9.24-26.83s-14.51-9.53-25.07-9.53-18.91,3.28-25.07,9.82c-6.16,6.55-9.24,15.2-9.24,25.95s2.98,18.82,8.94,25.36c5.96,6.55,14.9,9.82,26.83,9.82,10.16,0,18.18-3.12,24.04-9.38h.01Z"/>
    <path class="st0" d="M3513.33,112.65v34.6h-124.33v-34.6h124.33Z"/>
    <path class="st0" d="M3637.37,188.3c18.77-15.64,33.72-28.69,44.86-39.15,11.14-10.46,20.43-21.36,27.86-32.7,7.43-11.34,11.14-22.48,11.14-33.43,0-9.97-2.35-17.79-7.04-23.46s-11.93-8.5-21.7-8.5-17.3,3.28-22.58,9.82c-5.28,6.55-8.02,15.5-8.21,26.83h-39.88c.78-23.46,7.77-41.25,20.97-53.37s29.96-18.18,50.29-18.18c22.29,0,39.39,5.92,51.32,17.74,11.92,11.83,17.89,27.42,17.89,46.77,0,15.25-4.11,29.81-12.32,43.69s-17.59,25.95-28.15,36.21-24.34,22.63-41.35,37.09h86.5v34.02h-144.86v-30.5l15.25-12.9v.02Z"/>
  </g>
  <g>
    <path class="st0" d="M3021.1,287.2v78.6c0,9.73-2.96,17.41-8.86,23.06-5.91,5.65-13.68,8.47-23.3,8.47s-17.39-2.82-23.3-8.47c-5.91-5.65-8.86-13.34-8.86-23.06h18.04c.1,4.81,1.33,8.63,3.69,11.45,2.35,2.82,5.83,4.24,10.43,4.24s8.1-1.44,10.51-4.31c2.41-2.88,3.61-6.67,3.61-11.37v-78.6h18.04Z"/>
    <path class="st0" d="M3049.57,329.56c3.61-6.69,8.52-11.9,14.75-15.61,6.22-3.71,13.1-5.57,20.63-5.57,6.8,0,12.73,1.33,17.81,4,5.07,2.67,9.12,5.99,12.16,9.96v-12.55h18.04v86.45h-18.04v-12.86c-3.03,4.08-7.17,7.48-12.39,10.2-5.23,2.72-11.19,4.08-17.89,4.08-7.43,0-14.23-1.91-20.4-5.73s-11.06-9.15-14.67-16c-3.61-6.85-5.41-14.62-5.41-23.3s1.8-16.37,5.41-23.06h0ZM3111.23,337.4c-2.46-4.39-5.68-7.74-9.65-10.04-3.98-2.3-8.26-3.45-12.86-3.45s-8.89,1.13-12.86,3.37c-3.98,2.25-7.19,5.55-9.65,9.88-2.46,4.34-3.69,9.49-3.69,15.45s1.23,11.19,3.69,15.69,5.7,7.92,9.73,10.28c4.03,2.35,8.29,3.53,12.79,3.53s8.89-1.15,12.86-3.45c3.97-2.3,7.19-5.67,9.65-10.12,2.46-4.44,3.69-9.65,3.69-15.61s-1.23-11.14-3.69-15.53h-.01Z"/>
    <path class="st0" d="M3218.38,312.61c5.39,2.82,9.59,7.01,12.63,12.55,3.03,5.55,4.55,12.24,4.55,20.08v50.99h-17.73v-48.32c0-7.74-1.94-13.67-5.81-17.81-3.87-4.13-9.15-6.2-15.85-6.2s-12,2.07-15.92,6.2-5.88,10.07-5.88,17.81v48.32h-17.89v-86.45h17.89v9.88c2.93-3.55,6.67-6.33,11.22-8.32,4.55-1.99,9.39-2.98,14.51-2.98,6.8,0,12.89,1.41,18.28,4.24h0Z"/>
    <path class="st0" d="M3291.73,380.23l24.48-70.44h18.98l-32.95,86.45h-21.34l-32.79-86.45h19.14l24.47,70.44h.01Z"/>
    <path class="st0" d="M3349.62,295.04c-2.2-2.2-3.29-4.92-3.29-8.16s1.1-5.96,3.29-8.16,4.91-3.29,8.16-3.29,5.81,1.1,8,3.29,3.29,4.92,3.29,8.16-1.1,5.96-3.29,8.16c-2.2,2.2-4.86,3.29-8,3.29s-5.96-1.1-8.16-3.29ZM3366.57,309.79v86.45h-17.89v-86.45h17.89Z"/>
    <path class="st0" d="M3468.7,359.68h-66.05c.52,6.9,3.08,12.45,7.69,16.63,4.6,4.18,10.25,6.28,16.94,6.28,9.62,0,16.42-4.02,20.4-12.08h19.3c-2.62,7.95-7.35,14.46-14.2,19.53-6.85,5.07-15.35,7.61-25.49,7.61-8.26,0-15.66-1.86-22.2-5.57-6.54-3.71-11.66-8.94-15.38-15.69-3.71-6.75-5.57-14.56-5.57-23.45s1.8-16.71,5.41-23.45c3.61-6.75,8.68-11.95,15.22-15.61,6.54-3.66,14.04-5.49,22.51-5.49s15.43,1.78,21.81,5.33c6.38,3.56,11.35,8.55,14.9,14.98,3.55,6.43,5.33,13.83,5.33,22.2,0,3.24-.21,6.17-.63,8.79h.01ZM3450.66,345.25c-.11-6.59-2.46-11.87-7.06-15.85-4.6-3.97-10.3-5.96-17.1-5.96-6.17,0-11.45,1.96-15.85,5.88s-7.01,9.23-7.84,15.92h47.85Z"/>
    <path class="st0" d="M3515.22,312.07c4.34-2.46,9.49-3.69,15.45-3.69v18.51h-4.55c-7.01,0-12.32,1.78-15.92,5.33-3.61,3.56-5.41,9.73-5.41,18.51v45.5h-17.89v-86.45h17.89v12.55c2.61-4.39,6.09-7.82,10.43-10.28v.02Z"/>
    <path class="st0" d="M3595.47,371.92c10.04-8.68,17.96-15.82,23.77-21.42,5.81-5.59,10.64-11.43,14.51-17.49s5.81-12.13,5.81-18.2-1.49-11.19-4.47-14.75c-2.98-3.55-7.66-5.33-14.04-5.33s-10.96,1.96-14.35,5.88c-3.4,3.92-5.2,9.18-5.41,15.77h-17.26c.31-11.92,3.89-21.05,10.75-27.38,6.85-6.33,15.56-9.49,26.12-9.49,11.4,0,20.32,3.14,26.75,9.41,6.43,6.28,9.65,14.64,9.65,25.1,0,7.53-1.91,14.77-5.73,21.73-3.82,6.96-8.37,13.18-13.65,18.67-5.28,5.49-12,11.85-20.16,19.06l-7.06,6.28h49.73v14.9h-76.25v-13.02l11.3-9.73h-.01Z"/>
    <path class="st0" d="M3685.29,295.12c6.12-10.2,16.65-15.3,31.61-15.3s25.5,5.1,31.61,15.3c6.12,10.2,9.18,24.34,9.18,42.44s-3.06,32.61-9.18,42.91c-6.12,10.3-16.66,15.45-31.61,15.45s-25.49-5.15-31.61-15.45c-6.12-10.3-9.18-24.6-9.18-42.91s3.06-32.24,9.18-42.44ZM3738.47,316.07c-1.1-5.86-3.32-10.64-6.67-14.36-3.35-3.71-8.31-5.57-14.9-5.57s-11.56,1.86-14.9,5.57c-3.35,3.71-5.57,8.5-6.67,14.36-1.1,5.86-1.65,13.02-1.65,21.49s.52,16.16,1.57,22.12c1.04,5.96,3.27,10.77,6.67,14.43s8.39,5.49,14.98,5.49,11.58-1.83,14.98-5.49,5.62-8.47,6.67-14.43c1.04-5.96,1.57-13.34,1.57-22.12s-.55-15.64-1.65-21.49h0Z"/>
    <path class="st0" d="M3786.56,371.92c10.04-8.68,17.96-15.82,23.77-21.42,5.81-5.59,10.64-11.43,14.51-17.49s5.81-12.13,5.81-18.2-1.49-11.19-4.47-14.75c-2.98-3.55-7.66-5.33-14.04-5.33s-10.96,1.96-14.35,5.88c-3.4,3.92-5.2,9.18-5.41,15.77h-17.26c.31-11.92,3.89-21.05,10.75-27.38,6.85-6.33,15.56-9.49,26.12-9.49,11.4,0,20.32,3.14,26.75,9.41,6.43,6.28,9.65,14.64,9.65,25.1,0,7.53-1.91,14.77-5.73,21.73-3.82,6.96-8.37,13.18-13.65,18.67-5.28,5.49-12,11.85-20.16,19.06l-7.06,6.28h49.73v14.9h-76.25v-13.02l11.3-9.73h-.01Z"/>
    <path class="st0" d="M3922.43,297.55c-3.03-2.4-7.27-3.61-12.71-3.61-8.26,0-14.43,3.17-18.51,9.49-4.08,6.33-6.22,16.81-6.43,31.46,2.72-4.6,6.69-8.16,11.92-10.67s10.88-3.77,16.94-3.77c6.9,0,12.99,1.49,18.28,4.47,5.28,2.98,9.41,7.3,12.39,12.94s4.47,12.39,4.47,20.24c0,7.32-1.44,13.86-4.31,19.61-2.88,5.75-7.14,10.28-12.79,13.57-5.65,3.29-12.45,4.94-20.39,4.94-10.77,0-19.22-2.38-25.34-7.14s-10.41-11.48-12.86-20.16c-2.46-8.68-3.69-19.51-3.69-32.48,0-38.28,13.49-57.42,40.48-57.42,10.46,0,18.69,2.82,24.71,8.47,6.01,5.65,9.54,12.61,10.59,20.87h-16.47c-1.15-4.81-3.24-8.42-6.28-10.83v.02ZM3893.48,341.25c-4.45,3.82-6.67,9.34-6.67,16.55s2.06,12.94,6.2,17.18c4.13,4.24,9.91,6.35,17.34,6.35,6.59,0,11.79-2.04,15.61-6.12s5.73-9.52,5.73-16.32-1.86-12.79-5.57-17.02c-3.71-4.24-9.18-6.35-16.39-6.35-6.38,0-11.79,1.91-16.24,5.73h-.01Z"/>
  </g>
  <line class="st3" x1="2850.4" y1="24.29" x2="2850.4" y2="397.65"/>
  <line class="st2" x1="-1239.6" y1="-2167.11" x2="-1214.4" y2="-2167.11"/>
  <path class="st0" d="M3128.68,66.58c0-10.56,2.68-20.18,8.06-28.88,5.37-8.7,13.49-15.64,24.34-20.82s24.09-7.77,39.73-7.77,28.88,2.59,39.73,7.77,18.96,12.12,24.34,20.82c5.37,8.7,8.06,18.33,8.06,28.88s-2.64,20.19-7.92,28.3c-5.28,8.11-12.32,14.42-21.11,18.91,10.75,4.69,19.16,11.54,25.22,20.53s9.09,19.65,9.09,31.96c0,13.3-3.37,24.88-10.12,34.75-6.74,9.87-15.98,17.45-27.71,22.73s-24.92,7.92-39.59,7.92-27.81-2.64-39.44-7.92-20.82-12.85-27.56-22.73c-6.74-9.87-10.12-21.45-10.12-34.75,0-12.32,3.03-23.02,9.09-32.11s14.46-15.88,25.22-20.38c-19.55-10.16-29.32-25.9-29.32-47.21h.01ZM3173.7,140.18c-6.94,5.67-10.41,13.78-10.41,24.34,0,9.78,3.37,17.74,10.12,23.9,6.75,6.16,15.88,9.24,27.42,9.24s20.62-3.12,27.27-9.38c6.64-6.25,9.97-14.17,9.97-23.75,0-10.36-3.42-18.42-10.26-24.19-6.85-5.76-15.84-8.65-26.98-8.65s-20.19,2.84-27.12,8.5h-.01ZM3224.42,50.16c-5.77-5.28-13.63-7.92-23.6-7.92s-17.55,2.64-23.31,7.92c-5.77,5.28-8.65,12.81-8.65,22.58,0,8.8,2.98,15.83,8.94,21.11s13.64,7.92,23.02,7.92,17.1-2.69,23.17-8.06c6.06-5.37,9.09-12.46,9.09-21.26,0-9.58-2.89-17.01-8.65-22.29h-.01Z"/>
</svg>