<svg xmlns="http://www.w3.org/2000/svg" viewBox="0 0 134.06 34.06">
    <defs>
        <style>.cls-1{fill:#273679;}</style>
    </defs>
    <title>Asset 4</title>
    <g id="Layer_2" data-name="Layer 2">
        <g id="Calque_1" data-name="Calque 1">
            <path class="cls-1"
                  d="M42.35,8.25l.36,0c2.75,0,4.89,0,5.2,0a1.2,1.2,0,0,1,0,.2v.36c0,4.51,0,9,0,13.53,0,1.26.07,2.51.11,3.76a2.17,2.17,0,0,0,0,.25,3.4,3.4,0,0,0,1,1.61A4.65,4.65,0,0,0,51.32,29a7.16,7.16,0,0,0,1.53.16c1,0,2,0,3,0a5.7,5.7,0,0,0,1.69-.28,3.28,3.28,0,0,0,1.71-1.24,4.77,4.77,0,0,0,.86-2.17A16.94,16.94,0,0,0,60.28,23V8.7a1.34,1.34,0,0,1,0-.44,1,1,0,0,1,.17,0c.66,0,5.08,0,5.35,0a1.38,1.38,0,0,1,0,.2,2.08,2.08,0,0,1,0,.25q0,8.17,0,16.34a11.63,11.63,0,0,1-.31,2.69,7.13,7.13,0,0,1-2.94,4.34,7.49,7.49,0,0,1-2.83,1.17,10.6,10.6,0,0,1-2,.22l-2.9,0c-1.11,0-2.22,0-3.33,0a14,14,0,0,1-3.16-.33,7.15,7.15,0,0,1-2.94-1.43,1,1,0,0,0-.15-.11,1.13,1.13,0,0,0-.18.12,7.25,7.25,0,0,1-3.18,1.47,12.42,12.42,0,0,1-2.28.24c-1.42,0-2.84,0-4.26,0a13.33,13.33,0,0,1-2.6-.26,4.63,4.63,0,0,1-2.43-1.43A6,6,0,0,1,29,29.25a9.56,9.56,0,0,1-.36-2.61q0-4.82,0-9.64c0-.75,0-1.5,0-2.25a3.73,3.73,0,0,0,0-.82,5.63,5.63,0,0,0-.14-.59,1,1,0,0,0-.85-.71,8.09,8.09,0,0,0-.86-.07h-.86a3.06,3.06,0,0,0-1.38.34,2.06,2.06,0,0,0-1.14,1.51A8.26,8.26,0,0,0,23.21,16c0,1,0,1.95,0,2.93,0,1.83,0,3.66,0,5.48a19.92,19.92,0,0,1-.11,2,8.46,8.46,0,0,1-1,3.4,6.86,6.86,0,0,1-4.54,3.34,12.6,12.6,0,0,1-2.3.31c-1,.05-2,0-2.94,0q-1.2,0-2.4,0c-.7,0-1.41,0-2.11,0A9.78,9.78,0,0,1,5.05,33,6.9,6.9,0,0,1,.7,28.88a9.09,9.09,0,0,1-.58-2.46C0,25.5,0,24.58,0,23.66V17c0-.14,0-.29,0-.44l.19,0H5.43l.16,0a1.77,1.77,0,0,1,0,.2v6.7a13.25,13.25,0,0,0,.16,2.18,4.29,4.29,0,0,0,1,2.19A3.49,3.49,0,0,0,8.65,29a10.59,10.59,0,0,0,2.24.24l2,0a8.11,8.11,0,0,0,1.77-.24,3.54,3.54,0,0,0,2.42-2,5,5,0,0,0,.43-1.58,23.7,23.7,0,0,0,.11-3l-.06-6.55a15.72,15.72,0,0,1,.3-3.06,5.38,5.38,0,0,1,2.43-3.56A5.58,5.58,0,0,1,23,8.24c.54,0,1.08,0,1.61,0l5.34,0a8.65,8.65,0,0,1,1.25.07,4.89,4.89,0,0,1,1.13.33,3,3,0,0,1,1.59,1.8,3.74,3.74,0,0,1,.16.66,11,11,0,0,1,.17,2.07V25.71A7.2,7.2,0,0,0,34.31,27a3,3,0,0,0,.46,1.12,2.16,2.16,0,0,0,1.7,1,8.39,8.39,0,0,0,3-.2,3.33,3.33,0,0,0,2-1.53,4.89,4.89,0,0,0,.62-1.6,12.8,12.8,0,0,0,.24-2.24V8.25Z"/>
            <path class="cls-1"
                  d="M84.35,29.24V8.33a.69.69,0,0,1,.41-.06h4.91l.26,0c0,.07,0,.12,0,.18V28.7c0,.17,0,.33,0,.52l.22,0h9.33c0-.09,0-.16,0-.22V8.78c0-.15,0-.31,0-.46a.71.71,0,0,1,.4-.05h5.17a1.94,1.94,0,0,1,0,.2V28.76a1.53,1.53,0,0,0,0,.47l.25,0h5a6.07,6.07,0,0,0,1.35-.14,3.47,3.47,0,0,0,.55-.16,3.2,3.2,0,0,0,1.89-1.75,5.86,5.86,0,0,0,.49-2.3c0-.19,0-.38,0-.57v-16c.13-.11.27-.07.4-.07h5.14a1.91,1.91,0,0,1,0,.21,2,2,0,0,1,0,.25c0,5.49,0,11,0,16.47a11.69,11.69,0,0,1-.29,2.7,8,8,0,0,1-1,2.35,5.88,5.88,0,0,1-2.47,2.27,9.66,9.66,0,0,1-2.86.87,14.61,14.61,0,0,1-2.29.16H80.76c-1.46,0-2.91,0-4.37-.08a8.82,8.82,0,0,1-3-.61,7,7,0,0,1-4.31-4.71A11.46,11.46,0,0,1,68.66,25V.15l.3,0h5l.3,0c0,.16,0,.3,0,.44v22.6a14.32,14.32,0,0,0,.21,2.53,4.56,4.56,0,0,0,.83,2A3.47,3.47,0,0,0,77.45,29a8.58,8.58,0,0,0,1.75.17h.36l4.36.05Z"/>
            <rect class="cls-1" x="0.01" y="8.2" width="5.62" height="5.62"/>
            <rect class="cls-1" x="0.01" y="0.12" width="5.62" height="5.62"/>
            <rect class="cls-1" x="38.49" y="0.12" width="5.62" height="5.62"/>
            <rect class="cls-1" x="46" y="0.12" width="5.62" height="5.62"/>
            <rect class="cls-1" x="60.29" y="0.12" width="5.62" height="5.62"/>
            <rect class="cls-1" x="92.72" y="0.12" width="5.62" height="5.62"/>
            <rect class="cls-1" x="100.23" y="0.12" width="5.62" height="5.62"/>
            <rect class="cls-1" x="107.8" y="0.12" width="5.62" height="5.62"/>
            <path class="cls-1"
                  d="M134.06,31.12a4.62,4.62,0,0,1-.89,2.94l-1.26-.5a3.41,3.41,0,0,0,.9-2.41A1.91,1.91,0,0,0,132.5,30a1,1,0,0,0-.85-.44,1,1,0,0,0-.87.42,3.84,3.84,0,0,0-.51,1.35,3.47,3.47,0,0,1-.93,1.87,2.25,2.25,0,0,1-1.62.59A2.07,2.07,0,0,1,126,33a3,3,0,0,1-.63-2,4,4,0,0,1,1.12-2.91l1.06.72a2.65,2.65,0,0,0-.93,2.05,1.9,1.9,0,0,0,.29,1.09.91.91,0,0,0,.78.41,1,1,0,0,0,.8-.38,3.88,3.88,0,0,0,.51-1.34,4.14,4.14,0,0,1,.87-1.85,2.14,2.14,0,0,1,1.68-.66,2.3,2.3,0,0,1,1.83.78A3.21,3.21,0,0,1,134.06,31.12Z"/>
            <path class="cls-1"
                  d="M128.08,23.67a1.86,1.86,0,0,1,.55-1.45,2.84,2.84,0,0,1,2-.52h3.29v1.36l-3.11,0a1.91,1.91,0,0,0-1.17.28,1,1,0,0,0-.32.81,1.26,1.26,0,0,0,.38.92,1.56,1.56,0,0,0,1.14.39l3.08,0v1.36H124.7V25.55h4.36A2,2,0,0,1,128.08,23.67Z"/>
            <path class="cls-1"
                  d="M128.25,15.74V14.48h5.64v1.36h-.82a2.35,2.35,0,0,1,1,2,2.5,2.5,0,0,1-.79,1.94,3,3,0,0,1-2.16.74,3.06,3.06,0,0,1-2.19-.76,2.65,2.65,0,0,1-.79-2,2.14,2.14,0,0,1,1.09-2Zm2.92.23h-.1a1.66,1.66,0,0,0-1.25.44,1.51,1.51,0,0,0-.45,1.14,1.53,1.53,0,0,0,.45,1.14,1.74,1.74,0,0,0,1.25.46,1.69,1.69,0,0,0,1.25-.43,1.62,1.62,0,0,0,.44-1.17,1.58,1.58,0,0,0-.41-1.12A1.47,1.47,0,0,0,131.17,16Z"/>
            <path class="cls-1"
                  d="M128.08,9.58a2,2,0,0,1,.54-1.52,2.86,2.86,0,0,1,2-.52h3.31V8.91h-3.13a1.88,1.88,0,0,0-1.16.28,1.08,1.08,0,0,0-.31.82,1.3,1.3,0,0,0,.37.93,1.55,1.55,0,0,0,1.15.38l3.08,0v1.36h-5.64V11.51h.92A1.94,1.94,0,0,1,128.08,9.58Z"/>
            <path class="cls-1"
                  d="M132.5,2.65l1.11-.32A2.69,2.69,0,0,1,134.06,4a1.6,1.6,0,0,1-.52,1.33,2.76,2.76,0,0,1-1.69.41h-2.46v.7h-1.14v-.7h-2V4.36h2V2.72h1.13V4.36h2.37a1.53,1.53,0,0,0,.85-.18.65.65,0,0,0,.26-.59A1.44,1.44,0,0,0,132.5,2.65Z"/>
            <path class="cls-1" d="M133.89,1.39h-5.64V0l5.64,0ZM125.9,0V1.39h1.39V0Z"/>
        </g>
    </g>
</svg>
